<svg viewBox="0 0 200 200" xmlns="http://www.w3.org/2000/svg">
  <!-- Connection lines -->
  <g stroke="currentColor" stroke-width="1" fill="none">
    <path d="M20,30 C50,10 80,40 100,30" />
    <path d="M30,60 C60,40 90,80 120,60" />
    <path d="M40,90 C70,70 100,110 140,90" />
    <path d="M50,120 C80,100 110,140 160,120" />
    <path d="M60,150 C90,130 120,170 180,150" />
    
    <path d="M20,30 L30,60 L40,90 L50,120 L60,150" />
    <path d="M100,30 L120,60 L140,90 L160,120 L180,150" />
  </g>
  
  <!-- Connection dots -->
  <g fill="currentColor">
    <circle cx="20" cy="30" r="3" />
    <circle cx="30" cy="60" r="4" />
    <circle cx="40" cy="90" r="5" />
    <circle cx="50" cy="120" r="4" />
    <circle cx="60" cy="150" r="3" />
    
    <circle cx="100" cy="30" r="4" />
    <circle cx="120" cy="60" r="5" />
    <circle cx="140" cy="90" r="6" />
    <circle cx="160" cy="120" r="5" />
    <circle cx="180" cy="150" r="4" />
    
    <circle cx="80" cy="40" r="2" opacity="0.7" />
    <circle cx="90" cy="80" r="2" opacity="0.7" />
    <circle cx="100" cy="110" r="2" opacity="0.7" />
    <circle cx="110" cy="140" r="2" opacity="0.7" />
  </g>
</svg>
