<svg viewBox="0 0 400 120" xmlns="http://www.w3.org/2000/svg">
  <!-- Network connections -->
  <g stroke="currentColor" stroke-width="2" fill="none" opacity="0.8">
    <path d="M30,60 Q60,30 90,60 T150,60 T210,60 T270,60 T330,60" stroke-dasharray="1,4" />
    <path d="M30,80 Q60,50 90,80 T150,80 T210,80 T270,80 T330,80" />
    <path d="M50,40 L90,40 L130,40 L150,40" stroke-dasharray="5,5" />
    <path d="M200,40 L240,40 L280,40 L330,40" stroke-dasharray="10,3" />
  </g>
  
  <!-- Connection nodes -->
  <g fill="currentColor">
    <circle cx="30" cy="60" r="4" />
    <circle cx="90" cy="60" r="4" />
    <circle cx="150" cy="60" r="4" />
    <circle cx="210" cy="60" r="4" />
    <circle cx="270" cy="60" r="4" />
    <circle cx="330" cy="60" r="4" />
    
    <circle cx="30" cy="80" r="4" />
    <circle cx="90" cy="80" r="4" />
    <circle cx="150" cy="80" r="4" />
    <circle cx="210" cy="80" r="4" />
    <circle cx="270" cy="80" r="4" />
    <circle cx="330" cy="80" r="4" />
    
    <circle cx="50" cy="40" r="3" />
    <circle cx="90" cy="40" r="3" />
    <circle cx="130" cy="40" r="3" />
    <circle cx="150" cy="40" r="3" />
    
    <circle cx="200" cy="40" r="3" />
    <circle cx="240" cy="40" r="3" />
    <circle cx="280" cy="40" r="3" />
    <circle cx="330" cy="40" r="3" />
  </g>
</svg>
