<svg viewBox="0 0 240 240" xmlns="http://www.w3.org/2000/svg">
  <!-- Connecting lines -->
  <g stroke="currentColor" stroke-width="1.2" fill="none">
    <path d="M40,40 L100,80 L160,40 L200,100" />
    <path d="M40,40 L20,100 L80,140 L100,80" />
    <path d="M100,80 L140,140 L200,100" />
    <path d="M20,100 L60,160 L80,140" />
    <path d="M80,140 L120,200 L140,140" />
    <path d="M140,140 L200,180 L200,100" />
    
    <path d="M40,40 Q70,25 100,40 T160,40" stroke-dasharray="4,2" />
    <path d="M20,100 Q60,80 100,100 T160,100 T200,100" stroke-dasharray="6,2" />
    <path d="M60,160 Q90,150 120,160 T180,160" stroke-dasharray="4,2" />
    <path d="M120,200 Q150,190 180,200" stroke-dasharray="6,2" />
  </g>
  
  <!-- Nodes -->
  <g fill="currentColor">
    <!-- Main nodes -->
    <circle cx="40" cy="40" r="6" />
    <circle cx="160" cy="40" r="6" />
    <circle cx="100" cy="80" r="8" />
    <circle cx="20" cy="100" r="6" />
    <circle cx="200" cy="100" r="8" />
    <circle cx="80" cy="140" r="7" />
    <circle cx="140" cy="140" r="7" />
    <circle cx="60" cy="160" r="6" />
    <circle cx="200" cy="180" r="6" />
    <circle cx="120" cy="200" r="6" />
    
    <!-- Small connector nodes -->
    <circle cx="70" cy="60" r="2" opacity="0.7" />
    <circle cx="130" cy="60" r="2" opacity="0.7" />
    <circle cx="60" cy="100" r="3" opacity="0.7" />
    <circle cx="150" cy="100" r="3" opacity="0.7" />
    <circle cx="110" cy="140" r="2" opacity="0.7" />
    <circle cx="100" cy="160" r="2" opacity="0.7" />
    <circle cx="170" cy="160" r="2" opacity="0.7" />
    <circle cx="160" cy="180" r="2" opacity="0.7" />
  </g>
</svg>
