<svg viewBox="0 0 400 240" xmlns="http://www.w3.org/2000/svg">
  <defs>
    <linearGradient id="bg-gradient" x1="0%" y1="0%" x2="100%" y2="100%">
      <stop offset="0%" stop-color="currentColor" stop-opacity="0.1"/>
      <stop offset="100%" stop-color="currentColor" stop-opacity="0.05"/>
    </linearGradient>
    <linearGradient id="card-gradient" x1="0%" y1="0%" x2="100%" y2="100%">
      <stop offset="0%" stop-color="currentColor" stop-opacity="0.15"/>
      <stop offset="100%" stop-color="currentColor" stop-opacity="0.1"/>
    </linearGradient>
  </defs>
  
  <!-- Background -->
  <rect x="10" y="10" width="380" height="220" rx="20" fill="url(#bg-gradient)" />
  
  <!-- User profile -->
  <circle cx="200" cy="60" r="30" fill="currentColor" opacity="0.6" />
  <circle cx="200" cy="50" r="12" fill="white" opacity="0.9" />
  <path d="M180,80 Q200,100 220,80" stroke="white" stroke-width="3" fill="none" opacity="0.9" />
  
  <!-- Connected services -->
  <g transform="translate(80, 130)">
    <rect x="0" y="0" width="240" height="70" rx="10" fill="url(#card-gradient)" />
    
    <!-- Service icons -->
    <circle cx="40" cy="35" r="15" fill="white" opacity="0.8" />
    <circle cx="120" cy="35" r="15" fill="white" opacity="0.8" />
    <circle cx="200" cy="35" r="15" fill="white" opacity="0.8" />
    
    <!-- Connection lines -->
    <path d="M55,35 L105,35" stroke="white" stroke-width="2" stroke-dasharray="4,2" opacity="0.7" />
    <path d="M135,35 L185,35" stroke="white" stroke-width="2" stroke-dasharray="4,2" opacity="0.7" />
  </g>
  
  <!-- Decorative elements -->
  <circle cx="60" cy="50" r="8" fill="currentColor" opacity="0.5" />
  <circle cx="340" cy="50" r="8" fill="currentColor" opacity="0.5" />
  <circle cx="60" cy="190" r="8" fill="currentColor" opacity="0.5" />
  <circle cx="340" cy="190" r="8" fill="currentColor" opacity="0.5" />
  
  <path d="M60,50 L60,190" stroke="currentColor" stroke-width="1" stroke-dasharray="4,4" opacity="0.3" />
  <path d="M340,50 L340,190" stroke="currentColor" stroke-width="1" stroke-dasharray="4,4" opacity="0.3" />
  <path d="M60,50 L340,50" stroke="currentColor" stroke-width="1" stroke-dasharray="4,4" opacity="0.3" />
  <path d="M60,190 L340,190" stroke="currentColor" stroke-width="1" stroke-dasharray="4,4" opacity="0.3" />
</svg>
