<?xml version="1.0" encoding="iso-8859-1"?>
<!-- Uploaded to: SVG Repo, www.svgrepo.com, Generator: SVG Repo Mixer Tools -->
<svg fill="#000000" version="1.1" id="Layer_1" xmlns="http://www.w3.org/2000/svg" xmlns:xlink="http://www.w3.org/1999/xlink" 
	 viewBox="0 0 512 512" xml:space="preserve">
<g>
	<g>
		<rect x="339.478" y="100.174" width="33.391" height="33.391"/>
	</g>
</g>
<g>
	<g>
		<rect x="139.13" y="100.174" width="33.391" height="33.391"/>
	</g>
</g>
<g>
	<g>
		<g>
			<rect x="339.478" y="311.653" width="33.391" height="33.391"/>
			<polygon points="473.044,211.479 473.044,100.174 439.653,100.174 439.653,178.087 406.261,178.087 406.261,133.565 
				372.87,133.565 372.87,311.653 473.044,311.653 473.044,278.261 406.261,278.261 406.261,211.479 			"/>
		</g>
	</g>
</g>
<g>
	<g>
		<g>
			<rect x="139.13" y="311.653" width="33.391" height="33.391"/>
			<polygon points="105.739,133.565 105.739,178.087 72.347,178.087 72.347,100.174 38.956,100.174 38.956,211.479 105.739,211.479 
				105.739,278.261 38.956,278.261 38.956,378.436 72.347,378.436 72.347,311.653 139.13,311.653 139.13,133.565 			"/>
			<rect x="172.522" y="345.044" width="66.783" height="33.391"/>
		</g>
	</g>
</g>
<g>
	<g>
		<rect x="172.522" y="66.783" width="166.957" height="33.391"/>
	</g>
</g>
<g>
	<g>
		<rect x="72.347" y="66.783" width="33.391" height="33.391"/>
	</g>
</g>
<g>
	<g>
		<rect x="105.739" y="33.391" width="33.391" height="33.391"/>
	</g>
</g>
<g>
	<g>
		<rect x="139.13" width="233.74" height="33.391"/>
	</g>
</g>
<g>
	<g>
		<rect x="372.87" y="33.391" width="33.391" height="33.391"/>
	</g>
</g>
<g>
	<g>
		<rect x="406.261" y="66.783" width="33.391" height="33.391"/>
	</g>
</g>
<g>
	<g>
		<rect x="5.565" y="211.479" width="33.391" height="66.783"/>
	</g>
</g>
<g>
	<g>
		<rect x="473.044" y="211.479" width="33.391" height="66.783"/>
	</g>
</g>
<g>
	<g>
		<rect x="172.522" y="445.218" width="66.783" height="33.391"/>
	</g>
</g>
<g>
	<g>
		<rect x="239.304" y="378.436" width="33.391" height="66.782"/>
	</g>
</g>
<g>
	<g>
		<rect x="72.347" y="378.436" width="33.391" height="33.391"/>
	</g>
</g>
<g>
	<g>
		<g>
			<polygon points="372.87,411.827 372.87,378.436 339.478,378.436 339.478,345.044 306.085,345.044 306.085,411.826 
				306.088,411.826 306.088,411.828 372.87,411.828 372.87,445.217 406.261,445.217 406.261,411.827 			"/>
			<rect x="406.261" y="445.217" width="33.389" height="66.783"/>
		</g>
	</g>
</g>
<g>
	<g>
		<g>
			<rect x="72.347" y="445.217" width="33.391" height="66.783"/>
			<polygon points="139.13,378.436 139.13,411.827 105.739,411.827 105.739,445.217 172.522,445.217 172.522,378.436 			"/>
		</g>
	</g>
</g>
<g>
	<g>
		<rect x="172.522" y="166.957" width="33.391" height="44.522"/>
	</g>
</g>
<g>
	<g>
		<rect x="306.087" y="166.957" width="33.391" height="44.522"/>
	</g>
</g>
<g>
	<g>
		<rect x="172.522" y="244.87" width="33.391" height="33.391"/>
	</g>
</g>
<g>
	<g>
		<rect x="306.087" y="244.87" width="33.391" height="33.391"/>
	</g>
</g>
<g>
	<g>
		<rect x="205.913" y="278.261" width="100.174" height="33.391"/>
	</g>
</g>
</svg>